<svg width="15" height="15" viewBox="0 0 12 12" fill="none" xmlns="http://www.w3.org/2000/svg">
<path d="M1.05022 1.05071C0.659692 1.44123 0.659692 2.0744 1.05022 2.46492L4.5858 6.00043L1.05023 9.53603C0.659702 9.92653 0.659702 10.5597 1.05023 10.9502C1.44075 11.3407 2.07392 11.3407 2.46444 10.9502L6 7.41463L9.5355 10.9502C9.926 11.3407 10.5592 11.3407 10.9497 10.9502C11.3402 10.5596 11.3402 9.92653 10.9497 9.53603L7.4142 6.00043L10.9497 2.46492C11.3402 2.0744 11.3402 1.44123 10.9497 1.05071C10.5592 0.66019 9.926 0.66019 9.5355 1.05071L6 4.58623L2.46443 1.05071C2.07391 0.66018 1.44074 0.66018 1.05022 1.05071Z" fill="black"/>
</svg>
