<svg width="18" height="21" viewBox="0 0 18 21" fill="none" xmlns="http://www.w3.org/2000/svg">
<path d="M18 9.9366C18 9.65382 17.9325 9.38847 17.8195 9.14729C17.0656 6.71529 13.5363 6.89294 8.51596 6.77431C7.67662 6.75464 8.15672 5.76351 8.45131 3.58786C8.64301 2.17284 7.73059 0 6.19695 0C3.66825 0 6.10082 1.99463 3.86501 6.92723C2.67037 9.56275 0 8.08645 0 10.7338V16.7598C0 17.7903 0.101193 18.7809 1.5505 18.9439C2.9554 19.1019 2.63945 20.1031 4.66613 20.1031H14.8102C15.8435 20.1031 16.6839 19.2621 16.6839 18.2288C16.6839 17.8004 16.5338 17.4103 16.2915 17.0943C16.865 16.7733 17.2585 16.1673 17.2585 15.4646C17.2585 15.0373 17.1089 14.6471 16.8672 14.3318C17.4423 14.0113 17.837 13.4047 17.837 12.7009C17.837 12.1898 17.6301 11.7266 17.2967 11.3876C17.7223 11.0441 18 10.5246 18 9.9366Z" fill="#FFDB5E"/>
<path d="M11.2905 11.8105H16.1275C16.7853 11.8105 17.4026 11.4586 17.7387 10.8925C17.877 10.6592 17.8 10.3573 17.5662 10.2184C17.3328 10.0795 17.031 10.1577 16.8921 10.391C16.733 10.6603 16.439 10.8267 16.127 10.8267H11.1741C10.6833 10.8267 10.2842 10.4275 10.2842 9.93675C10.2842 9.44596 10.6833 9.04681 11.1741 9.04681H14.4837C14.7552 9.04681 14.9756 8.82643 14.9756 8.5549C14.9756 8.28336 14.7552 8.06299 14.4837 8.06299H11.1736C10.1403 8.06299 9.2998 8.90345 9.2998 9.93675C9.2998 10.513 9.56684 11.0229 9.97724 11.3669C9.63149 11.7071 9.41618 12.1793 9.41618 12.701C9.41618 13.2789 9.6849 13.7905 10.0975 14.134C9.75405 14.4736 9.54098 14.9441 9.54098 15.4647C9.54098 16.0943 9.85524 16.6498 10.3331 16.9899C10.0385 17.321 9.85412 17.7522 9.85412 18.229C9.85412 19.2623 10.6946 20.1027 11.7279 20.1027H14.8109C15.4686 20.1027 16.0865 19.7514 16.4227 19.1852C16.5615 18.9519 16.4845 18.65 16.2512 18.5112C16.0173 18.3734 15.7154 18.4493 15.5771 18.6826C15.4169 18.9519 15.1229 19.1189 14.8109 19.1189H11.7279C11.2371 19.1189 10.8379 18.7197 10.8379 18.229C10.8379 17.7382 11.2371 17.339 11.7279 17.339H15.3854C16.0432 17.339 16.6616 16.9871 16.9972 16.421C17.1361 16.1871 17.0591 15.8852 16.8258 15.7469C16.5902 15.6058 16.2894 15.6851 16.1517 15.9184C15.9892 16.1922 15.7025 16.3552 15.3854 16.3552H11.4147C10.924 16.3552 10.5248 15.9555 10.5248 15.4647C10.5248 14.9739 10.924 14.5748 11.4147 14.5748H15.9634C16.6211 14.5748 17.239 14.2234 17.5751 13.6573C17.714 13.424 17.637 13.1221 17.4037 12.9832C17.1693 12.8449 16.8679 12.9214 16.7296 13.1547C16.5672 13.4279 16.2804 13.5909 15.9634 13.5909H11.2905C10.7997 13.5909 10.4006 13.1918 10.4006 12.701C10.4006 12.2102 10.7991 11.8105 11.2905 11.8105Z" fill="#EE9547"/>
</svg>
