<svg width="25" height="22" viewBox="0 0 25 22" fill="none" xmlns="http://www.w3.org/2000/svg">
<path d="M17.9183 16.0906C18.1729 16.3815 18.3183 16.7451 18.3183 17.1451C18.3183 17.7997 17.882 18.3815 17.3001 18.5997C17.482 18.8542 17.591 19.1815 17.591 19.5088C17.591 20.3815 16.9001 21.0724 16.0274 21.0724H9.88195C9.88195 21.0724 9.84559 21.0724 9.80922 21.0724C6.68195 20.5997 6.5365 20.5633 6.20922 20.5997V12.6724C6.20922 12.5269 6.17286 12.3815 6.1365 12.236C7.37286 10.9269 7.48195 9.7633 9.37286 9.18148C10.0638 8.9633 10.6456 8.52693 11.0456 7.94512L12.791 5.47239C12.9001 5.32693 13.082 5.29057 13.2274 5.3633C14.7547 6.05421 15.3001 7.94512 14.3547 9.3633L13.4092 10.8178H16.4274C17.2638 10.8178 17.991 11.4724 18.0274 12.2724C18.0638 12.6724 17.9183 13.036 17.7001 13.3269C18.3183 13.5451 18.682 14.0906 18.682 14.7451C18.682 15.3269 18.3547 15.7997 17.9183 16.0906ZM23.8092 4.52694L22.1729 5.72693L22.791 7.69057C22.9001 8.01784 22.791 8.34512 22.5001 8.52694C22.2456 8.70875 21.882 8.70875 21.6274 8.52694L19.991 7.32693L18.3183 8.52694C18.0638 8.70875 17.7001 8.74512 17.4456 8.52694C17.191 8.34512 17.082 8.01784 17.1547 7.69057L17.7729 5.7633L16.1365 4.52694C15.882 4.34512 15.7729 4.01784 15.8456 3.69057C15.9547 3.3633 16.2092 3.18148 16.5729 3.18148H18.6092L19.2638 1.25421C19.3729 0.926935 19.6638 0.745117 19.991 0.745117C20.3183 0.745117 20.6092 0.963299 20.7183 1.25421L21.3365 3.18148H23.3729C23.7001 3.18148 23.991 3.39966 24.1001 3.69057C24.2092 4.01784 24.1001 4.34512 23.8092 4.52694ZM5.48195 12.6724V20.9269C5.48195 21.1088 5.30013 21.2906 5.11832 21.2906H1.22741C1.00922 21.2906 0.86377 21.1088 0.86377 20.9269V12.6724C0.86377 12.4542 1.00922 12.3088 1.22741 12.3088H5.15468C5.3365 12.3088 5.48195 12.4542 5.48195 12.6724Z" fill="white"/>
</svg>
